# xmcd
#
# Track frame offsets: 
#        150
#        13480
#        32450
#        49782
#        68682
#        83880
#        97082
#        123390
#        141157
#        155457
#        174287
#
# Disc length: 2552 seconds
#
# Revision: 5
# Processed by: cddbd v1.5.2PL0 Copyright (c) Steve Scherf et al.
# Submitted via: ExactAudioCopyFreeDBPlugin 1.0
#
DISCID=8d09f60b
DTITLE=Various Artist - People Get Ready:  A Tribute to Curtis Mayfie
DTITLE=ld [Shanachie Records]
DYEAR=1993
DGENRE=Rhythm and Blues
TTITLE0=Don Covay and Angela Strehli - Um, Um, Um, Um, Um, Um
TTITLE1=Delbert McClinton - He Will Break Your Heart
TTITLE2=Jerry Butler - Choice of Colours
TTITLE3=David Sanborn and Jonathan Sanborn - People Get Ready
TTITLE4=Angela Strehli - Got a Right to Cry
TTITLE5=Huey Lewis and The News - It's Alright
TTITLE6=Michael Hill and Vernon Reid - We People Who Are Darker Than B
TTITLE6=lue
TTITLE7=Bunny Wailer - I Gotta Keep on Moving
TTITLE8=Don Covay - You Must Believe Me
TTITLE9=Steve Cropper and Lani Groves - I'm So Proud
TTITLE10=Kim Wilson - Gypsy Woman
EXTD=YEAR: 1993
EXTT0=Don Covay and Angela Strehli
EXTT1=Delbert McClinton
EXTT2=Jerry Butler
EXTT3=David Sanborn and Jonathan Sanborn
EXTT4=Angela Strehli
EXTT5=Huey Lewis and The News
EXTT6=Michael Hill and Vernon Reid
EXTT7=Bunny Wailer
EXTT8=Don Covay
EXTT9=Steve Cropper and Lani Groves
EXTT10=Kim Wilson
PLAYORDER=
